{
    "asset" : {
        "generator" : "Khronos glTF Blender I/O v1.2.75",
        "version" : "2.0"
    },
    "scene" : 0,
    "scenes" : [
        {
            "name" : "Scene",
            "nodes" : [
                0
            ]
        }
    ],
    "nodes" : [
        {
            "mesh" : 0,
            "name" : "Firetruck",
            "rotation" : [
                0.7071068286895752,
                0,
                0,
                0.7071067094802856
            ],
            "scale" : [
                0.009999999776482582,
                0.009999999776482582,
                0.009999999776482582
            ]
        }
    ],
    "materials" : [
        {
            "doubleSided" : true,
            "emissiveFactor" : [
                0,
                0,
                0
            ],
            "name" : "firetruck_material",
            "normalTexture" : {
                "index" : 0,
                "texCoord" : 0
            },
            "pbrMetallicRoughness" : {
                "baseColorTexture" : {
                    "index" : 1,
                    "texCoord" : 0
                },
                "metallicFactor" : 1,
                "roughnessFactor" : 0.858578622341156
            }
        }
    ],
    "meshes" : [
        {
            "name" : "Mesh",
            "primitives" : [
                {
                    "attributes" : {
                        "POSITION" : 0,
                        "NORMAL" : 1,
                        "TEXCOORD_0" : 2,
                        "TEXCOORD_1" : 3
                    },
                    "indices" : 4,
                    "material" : 0
                }
            ]
        }
    ],
    "textures" : [
        {
            "source" : 0
        },
        {
            "source" : 1
        }
    ],
    "images" : [
        {
            "mimeType" : "image/png",
            "name" : "firetruck_normals",
            "uri" : "textures/firetruck_normals.png"
        },
        {
            "mimeType" : "image/png",
            "name" : "firetruck_diffuse",
            "uri" : "textures/firetruck_diffuse.png"
        }
    ],
    "accessors" : [
        {
            "bufferView" : 0,
            "componentType" : 5126,
            "count" : 8078,
            "max" : [
                225.587158203125,
                281.8758544921875,
                1.0392837524414062
            ],
            "min" : [
                -174.573486328125,
                -281.870849609375,
                -229.81732177734375
            ],
            "type" : "VEC3"
        },
        {
            "bufferView" : 1,
            "componentType" : 5126,
            "count" : 8078,
            "type" : "VEC3"
        },
        {
            "bufferView" : 2,
            "componentType" : 5126,
            "count" : 8078,
            "type" : "VEC2"
        },
        {
            "bufferView" : 3,
            "componentType" : 5126,
            "count" : 8078,
            "type" : "VEC2"
        },
        {
            "bufferView" : 4,
            "componentType" : 5123,
            "count" : 12498,
            "type" : "SCALAR"
        }
    ],
    "bufferViews" : [
        {
            "buffer" : 0,
            "byteLength" : 96936,
            "byteOffset" : 0
        },
        {
            "buffer" : 0,
            "byteLength" : 96936,
            "byteOffset" : 96936
        },
        {
            "buffer" : 0,
            "byteLength" : 64624,
            "byteOffset" : 193872
        },
        {
            "buffer" : 0,
            "byteLength" : 64624,
            "byteOffset" : 258496
        },
        {
            "buffer" : 0,
            "byteLength" : 24996,
            "byteOffset" : 323120
        }
    ],
    "buffers" : [
        {
            "byteLength" : 348116,
            "uri" : "firetruck.bin"
        }
    ]
}
