{
    "asset" : {
        "generator" : "Khronos glTF Blender I/O v1.2.75",
        "version" : "2.0"
    },
    "scene" : 0,
    "scenes" : [
        {
            "name" : "Scene",
            "nodes" : [
                36
            ]
        }
    ],
    "nodes" : [
        {
            "name" : "HeadEnd",
            "rotation" : [
                0,
                0,
                1.9852334701272664e-23,
                1
            ],
            "translation" : [
                1.6008799036295977e-14,
                3.814697265625e-06,
                36.048606872558594
            ]
        },
        {
            "name" : "LeftEarEnd",
            "rotation" : [
                5.587935447692871e-09,
                -3.2469468891349607e-08,
                2.6949559028821568e-08,
                1
            ],
            "scale" : [
                1.0000001192092896,
                1,
                1
            ],
            "translation" : [
                -1.0178387128689792e-06,
                -1.430511474609375e-06,
                21.373943328857422
            ]
        },
        {
            "children" : [
                1
            ],
            "name" : "LeftEar",
            "rotation" : [
                -0.07782655209302902,
                0.3654193878173828,
                0.030676309019327164,
                0.9270764589309692
            ],
            "translation" : [
                33.96649169921875,
                6.945118427276611,
                40.90422058105469
            ]
        },
        {
            "name" : "RightEarEnd",
            "rotation" : [
                -3.725290298461914e-09,
                5.256583790469449e-08,
                1.2314043118522022e-09,
                1
            ],
            "translation" : [
                -8.726825763005763e-05,
                1.6689300537109375e-05,
                -21.373950958251953
            ]
        },
        {
            "children" : [
                3
            ],
            "name" : "RightEar",
            "rotation" : [
                0.9270766973495483,
                -0.030652297660708427,
                0.3654160499572754,
                0.0778491348028183
            ],
            "scale" : [
                0.9999949932098389,
                0.9999999403953552,
                0.9999943971633911
            ],
            "translation" : [
                -33.966495513916016,
                6.9451141357421875,
                40.90425491333008
            ]
        },
        {
            "children" : [
                0,
                2,
                4
            ],
            "name" : "Head",
            "rotation" : [
                0,
                0,
                5.5511137996368026e-17,
                1
            ],
            "translation" : [
                1.3136487442267069e-14,
                -1.410095346084518e-15,
                23.02861976623535
            ]
        },
        {
            "name" : "LeftWristEnd",
            "scale" : [
                1,
                0.9999999403953552,
                1
            ],
            "translation" : [
                4.400010311655933e-07,
                -9.5367431640625e-07,
                10.998556137084961
            ]
        },
        {
            "children" : [
                6
            ],
            "name" : "LeftWrist",
            "translation" : [
                -2.893933924497105e-06,
                1.9073486328125e-06,
                23.802846908569336
            ]
        },
        {
            "children" : [
                7
            ],
            "name" : "LeftLowerArm",
            "translation" : [
                -1.8534786931923009e-06,
                -1.9073486328125e-06,
                25.116106033325195
            ]
        },
        {
            "children" : [
                8
            ],
            "name" : "LeftUpperArm",
            "rotation" : [
                3.925231410404213e-17,
                0.7071068286895752,
                4.0454922218130924e-18,
                0.7071067690849304
            ],
            "translation" : [
                17.286542892456055,
                6.9177117347717285,
                19.190275192260742
            ]
        },
        {
            "name" : "LeftWristFK",
            "translation" : [
                -2.893933924497105e-06,
                1.9073486328125e-06,
                23.80284309387207
            ]
        },
        {
            "children" : [
                10
            ],
            "name" : "LeftLowerArmFK",
            "translation" : [
                -1.8534786931923009e-06,
                -1.9073486328125e-06,
                25.116106033325195
            ]
        },
        {
            "children" : [
                11
            ],
            "name" : "LeftUpperArmFK",
            "rotation" : [
                0,
                0.7071068286895752,
                0,
                0.7071068286895752
            ],
            "translation" : [
                17.286542892456055,
                6.9177117347717285,
                19.19027328491211
            ]
        },
        {
            "name" : "LeftWristIK",
            "rotation" : [
                0,
                -1.1920931797249068e-07,
                0,
                1
            ],
            "translation" : [
                3.9492991277256806e-07,
                2.384185791015625e-06,
                23.802841186523438
            ]
        },
        {
            "children" : [
                13
            ],
            "name" : "LeftLowerArmIK",
            "rotation" : [
                0,
                2.3841860752327193e-07,
                0,
                1
            ],
            "translation" : [
                -3.1879917514743283e-06,
                -1.430511474609375e-06,
                25.116106033325195
            ]
        },
        {
            "children" : [
                14
            ],
            "name" : "LeftUpperArmIK",
            "rotation" : [
                1.403772143270092e-23,
                0.7071067094802856,
                -1.4037718277257298e-23,
                0.70710688829422
            ],
            "translation" : [
                17.286542892456055,
                6.9177117347717285,
                19.19027328491211
            ]
        },
        {
            "name" : "RightWristEnd",
            "translation" : [
                -4.400035322760232e-07,
                -9.5367431640625e-07,
                -10.998495101928711
            ]
        },
        {
            "children" : [
                16
            ],
            "name" : "RightWrist",
            "rotation" : [
                0,
                -1.7763568394002505e-15,
                0,
                1
            ],
            "translation" : [
                2.893934379244456e-06,
                1.9073486328125e-06,
                -23.802902221679688
            ]
        },
        {
            "children" : [
                17
            ],
            "name" : "RightLowerArm",
            "rotation" : [
                0,
                -1.5893254712295857e-08,
                0,
                1
            ],
            "translation" : [
                3.201307208655635e-06,
                -2.384185791015625e-06,
                -25.116100311279297
            ]
        },
        {
            "children" : [
                18
            ],
            "name" : "RightUpperArm",
            "rotation" : [
                0.7071067094802856,
                -3.0908619663705394e-08,
                0.7071068286895752,
                3.0908616110991716e-08
            ],
            "translation" : [
                -17.286500930786133,
                6.9177117347717285,
                19.19027328491211
            ]
        },
        {
            "name" : "RightWristFK",
            "rotation" : [
                8.013092411829348e-08,
                -8.013092411829348e-08,
                -1.644789541043845e-15,
                1
            ],
            "translation" : [
                1.7971429997487576e-06,
                5.564467755903024e-06,
                -23.802902221679688
            ]
        },
        {
            "children" : [
                20
            ],
            "name" : "RightLowerArmFK",
            "rotation" : [
                -4.006545850643306e-08,
                6.423766762964078e-08,
                -3.797063641286513e-08,
                1
            ],
            "translation" : [
                -6.1935138546687085e-06,
                -3.7138504467293387e-06,
                -25.116104125976562
            ]
        },
        {
            "children" : [
                21
            ],
            "name" : "RightUpperArmFK",
            "rotation" : [
                0.7071068286895752,
                -5.3698602897611636e-08,
                0.7071068286895752,
                0
            ],
            "translation" : [
                -17.286500930786133,
                6.9177117347717285,
                19.19027328491211
            ]
        },
        {
            "name" : "RightWristIK",
            "rotation" : [
                1.0239722314508981e-07,
                -2.64537021621436e-07,
                -0.06818494945764542,
                0.9976727366447449
            ],
            "translation" : [
                -2.9548532438639086e-06,
                -1.0567426045327011e-07,
                -23.80290412902832
            ]
        },
        {
            "children" : [
                23
            ],
            "name" : "RightLowerArmIK",
            "rotation" : [
                -4.00654514010057e-08,
                3.4707807117229095e-07,
                -3.352759492258883e-08,
                1
            ],
            "translation" : [
                2.5804893084568903e-06,
                -1.9918572888855124e-06,
                -25.116104125976562
            ]
        },
        {
            "children" : [
                24
            ],
            "name" : "RightUpperArmIK",
            "rotation" : [
                -0.7054612636566162,
                0.04821408912539482,
                -0.7054610848426819,
                0.04821377992630005
            ],
            "translation" : [
                -17.286500930786133,
                6.9177117347717285,
                19.19027328491211
            ]
        },
        {
            "children" : [
                5,
                9,
                12,
                15,
                19,
                22,
                25
            ],
            "name" : "Spine",
            "rotation" : [
                0,
                -2.1855694143368964e-08,
                0,
                1
            ],
            "translation" : [
                -8.451319786217937e-07,
                -1.9073486328125e-06,
                19.334365844726562
            ]
        },
        {
            "name" : "LeftFootEnd",
            "rotation" : [
                -1.1175870895385742e-07,
                2.7939681679356454e-09,
                4.649339495281621e-16,
                1
            ],
            "translation" : [
                -8.646466085338034e-07,
                1.4696505559186335e-06,
                5.998487949371338
            ]
        },
        {
            "children" : [
                27
            ],
            "name" : "LeftFoot",
            "rotation" : [
                -0.5085269808769226,
                -0.008523788303136826,
                -0.005034413188695908,
                0.8609891533851624
            ],
            "scale" : [
                1.000000238418579,
                1.0000001192092896,
                1
            ],
            "translation" : [
                8.304040761686338e-07,
                -4.659776095650159e-06,
                12.188743591308594
            ]
        },
        {
            "children" : [
                28
            ],
            "name" : "LeftLeg",
            "rotation" : [
                0.9999510049819946,
                4.3272233019031603e-10,
                0.009899529628455639,
                -4.370924600038961e-08
            ],
            "scale" : [
                0.9999999403953552,
                0.9999998211860657,
                0.9999999403953552
            ],
            "translation" : [
                15.48828125,
                -12.96435260772705,
                0.01975223608314991
            ]
        },
        {
            "name" : "RightFootEnd",
            "rotation" : [
                4.470348358154297e-08,
                1.1175885106240457e-08,
                -1.8626460374093767e-09,
                1
            ],
            "translation" : [
                -3.8902291521480947e-07,
                -3.293209374533035e-05,
                -5.998557090759277
            ]
        },
        {
            "children" : [
                30
            ],
            "name" : "RightFoot",
            "rotation" : [
                -0.5085271000862122,
                -0.008523817174136639,
                -0.0050344206392765045,
                0.8609890937805176
            ],
            "scale" : [
                1.000000238418579,
                1.0000001192092896,
                1
            ],
            "translation" : [
                1.265822629648028e-05,
                -1.6411426031481824e-06,
                -12.188727378845215
            ]
        },
        {
            "children" : [
                31
            ],
            "name" : "RightLeg",
            "rotation" : [
                -1.0772023633469276e-18,
                0.00989951379597187,
                6.168359757075174e-19,
                0.9999510049819946
            ],
            "scale" : [
                0.9999999403953552,
                1,
                0.9999999403953552
            ],
            "translation" : [
                -15.488300323486328,
                -12.964306831359863,
                0.019738061353564262
            ]
        },
        {
            "children" : [
                26,
                29,
                32
            ],
            "name" : "Hips",
            "rotation" : [
                -0.5,
                0.5000000596046448,
                -0.5,
                0.4999999701976776
            ],
            "scale" : [
                1,
                0.9999999403953552,
                1
            ],
            "translation" : [
                15.108060836791992,
                -9.25101856420361e-16,
                2.350988701644575e-38
            ]
        },
        {
            "children" : [
                33
            ],
            "name" : "Root",
            "rotation" : [
                -0.5,
                0.5000000596046448,
                0.5000000596046448,
                0.5
            ]
        },
        {
            "mesh" : 0,
            "name" : "Zombear",
            "skin" : 0
        },
        {
            "children" : [
                35,
                34
            ],
            "name" : "ControlGroup",
            "rotation" : [
                0.7071068286895752,
                0,
                0,
                0.7071067094802856
            ],
            "scale" : [
                0.009999999776482582,
                0.009999999776482582,
                0.009999999776482582
            ]
        }
    ],
    "materials" : [
        {
            "doubleSided" : true,
            "emissiveFactor" : [
                1,
                1,
                1
            ],
            "emissiveTexture" : {
                "index" : 0,
                "texCoord" : 0
            },
            "name" : "zombear_material",
            "normalTexture" : {
                "index" : 1,
                "texCoord" : 0
            },
            "pbrMetallicRoughness" : {
                "baseColorTexture" : {
                    "index" : 2,
                    "texCoord" : 0
                },
                "metallicFactor" : 1,
                "roughnessFactor" : 0.7171573042869568
            }
        },
        {
            "doubleSided" : true,
            "emissiveFactor" : [
                0,
                0,
                0
            ],
            "name" : "eyes_material",
            "pbrMetallicRoughness" : {
                "baseColorFactor" : [
                    0.8823530077934265,
                    0.8823530077934265,
                    0.8823530077934265,
                    1
                ],
                "metallicFactor" : 1,
                "roughnessFactor" : 0.6000000238418579
            }
        }
    ],
    "meshes" : [
        {
            "name" : "Mesh",
            "primitives" : [
                {
                    "attributes" : {
                        "POSITION" : 0,
                        "NORMAL" : 1,
                        "TEXCOORD_0" : 2,
                        "JOINTS_0" : 3,
                        "WEIGHTS_0" : 4
                    },
                    "indices" : 5,
                    "material" : 0
                },
                {
                    "attributes" : {
                        "POSITION" : 6,
                        "NORMAL" : 7,
                        "TEXCOORD_0" : 8,
                        "JOINTS_0" : 9,
                        "WEIGHTS_0" : 10
                    },
                    "indices" : 11,
                    "material" : 1
                }
            ]
        }
    ],
    "textures" : [
        {
            "source" : 0
        },
        {
            "source" : 1
        },
        {
            "source" : 2
        }
    ],
    "images" : [
        {
            "mimeType" : "image/png",
            "name" : "zombear_emission",
            "uri" : "textures/zombear_emission.png"
        },
        {
            "mimeType" : "image/png",
            "name" : "zombear_normals",
            "uri" : "textures/zombear_normals.png"
        },
        {
            "mimeType" : "image/png",
            "name" : "zombear_diffuse",
            "uri" : "textures/zombear_diffuse.png"
        }
    ],
    "skins" : [
        {
            "inverseBindMatrices" : 12,
            "joints" : [
                34,
                33,
                26,
                5,
                0,
                2,
                1,
                4,
                3,
                9,
                8,
                7,
                6,
                12,
                11,
                10,
                15,
                14,
                13,
                19,
                18,
                17,
                16,
                22,
                21,
                20,
                25,
                24,
                23,
                29,
                28,
                27,
                32,
                31,
                30
            ],
            "name" : "ControlGroup"
        }
    ],
    "accessors" : [
        {
            "bufferView" : 0,
            "componentType" : 5126,
            "count" : 1088,
            "max" : [
                0.7611719369888306,
                1.1736664772033691,
                0.34304726123809814
            ],
            "min" : [
                -0.7611719369888306,
                -0.003339401911944151,
                -0.3419714868068695
            ],
            "type" : "VEC3"
        },
        {
            "bufferView" : 1,
            "componentType" : 5126,
            "count" : 1088,
            "type" : "VEC3"
        },
        {
            "bufferView" : 2,
            "componentType" : 5126,
            "count" : 1088,
            "type" : "VEC2"
        },
        {
            "bufferView" : 3,
            "componentType" : 5123,
            "count" : 1088,
            "type" : "VEC4"
        },
        {
            "bufferView" : 4,
            "componentType" : 5126,
            "count" : 1088,
            "type" : "VEC4"
        },
        {
            "bufferView" : 5,
            "componentType" : 5123,
            "count" : 5388,
            "type" : "SCALAR"
        },
        {
            "bufferView" : 6,
            "componentType" : 5126,
            "count" : 164,
            "max" : [
                0.36543968319892883,
                1.0686376094818115,
                0.2670154571533203
            ],
            "min" : [
                -0.36543968319892883,
                0.8864142298698425,
                0.08479199558496475
            ],
            "type" : "VEC3"
        },
        {
            "bufferView" : 7,
            "componentType" : 5126,
            "count" : 164,
            "type" : "VEC3"
        },
        {
            "bufferView" : 8,
            "componentType" : 5126,
            "count" : 164,
            "type" : "VEC2"
        },
        {
            "bufferView" : 9,
            "componentType" : 5123,
            "count" : 164,
            "type" : "VEC4"
        },
        {
            "bufferView" : 10,
            "componentType" : 5126,
            "count" : 164,
            "type" : "VEC4"
        },
        {
            "bufferView" : 11,
            "componentType" : 5123,
            "count" : 768,
            "type" : "SCALAR"
        },
        {
            "bufferView" : 12,
            "componentType" : 5126,
            "count" : 35,
            "type" : "MAT4"
        }
    ],
    "bufferViews" : [
        {
            "buffer" : 0,
            "byteLength" : 13056,
            "byteOffset" : 0
        },
        {
            "buffer" : 0,
            "byteLength" : 13056,
            "byteOffset" : 13056
        },
        {
            "buffer" : 0,
            "byteLength" : 8704,
            "byteOffset" : 26112
        },
        {
            "buffer" : 0,
            "byteLength" : 8704,
            "byteOffset" : 34816
        },
        {
            "buffer" : 0,
            "byteLength" : 17408,
            "byteOffset" : 43520
        },
        {
            "buffer" : 0,
            "byteLength" : 10776,
            "byteOffset" : 60928
        },
        {
            "buffer" : 0,
            "byteLength" : 1968,
            "byteOffset" : 71704
        },
        {
            "buffer" : 0,
            "byteLength" : 1968,
            "byteOffset" : 73672
        },
        {
            "buffer" : 0,
            "byteLength" : 1312,
            "byteOffset" : 75640
        },
        {
            "buffer" : 0,
            "byteLength" : 1312,
            "byteOffset" : 76952
        },
        {
            "buffer" : 0,
            "byteLength" : 2624,
            "byteOffset" : 78264
        },
        {
            "buffer" : 0,
            "byteLength" : 1536,
            "byteOffset" : 80888
        },
        {
            "buffer" : 0,
            "byteLength" : 2240,
            "byteOffset" : 82424
        }
    ],
    "buffers" : [
        {
            "byteLength" : 84664,
            "uri" : "zombear.bin"
        }
    ]
}
