{
    "asset" : {
        "generator" : "Khronos glTF Blender I/O v1.2.75",
        "version" : "2.0"
    },
    "scene" : 0,
    "scenes" : [
        {
            "name" : "Scene",
            "nodes" : [
                0
            ]
        }
    ],
    "nodes" : [
        {
            "mesh" : 0,
            "name" : "DollArm",
            "rotation" : [
                0.7071068286895752,
                0,
                0,
                0.7071067094802856
            ],
            "scale" : [
                0.009999999776482582,
                0.009999999776482582,
                0.009999999776482582
            ]
        }
    ],
    "materials" : [
        {
            "doubleSided" : true,
            "emissiveFactor" : [
                0,
                0,
                0
            ],
            "name" : "doll_arm_material",
            "normalTexture" : {
                "index" : 0,
                "texCoord" : 0
            },
            "pbrMetallicRoughness" : {
                "baseColorTexture" : {
                    "index" : 1,
                    "texCoord" : 0
                },
                "metallicFactor" : 1,
                "roughnessFactor" : 0.858578622341156
            }
        }
    ],
    "meshes" : [
        {
            "name" : "Mesh",
            "primitives" : [
                {
                    "attributes" : {
                        "POSITION" : 0,
                        "NORMAL" : 1,
                        "TEXCOORD_0" : 2,
                        "TEXCOORD_1" : 3
                    },
                    "indices" : 4,
                    "material" : 0
                }
            ]
        }
    ],
    "textures" : [
        {
            "source" : 0
        },
        {
            "source" : 1
        }
    ],
    "images" : [
        {
            "mimeType" : "image/png",
            "name" : "doll_arm_normals",
            "uri" : "textures/doll_arm_normals.png"
        },
        {
            "mimeType" : "image/png",
            "name" : "doll_arm_diffuse",
            "uri" : "textures/doll_arm_diffuse.png"
        }
    ],
    "accessors" : [
        {
            "bufferView" : 0,
            "componentType" : 5126,
            "count" : 1153,
            "max" : [
                206.78024291992188,
                245.30360412597656,
                21.0989990234375
            ],
            "min" : [
                -206.78024291992188,
                -245.30360412597656,
                -146.5760498046875
            ],
            "type" : "VEC3"
        },
        {
            "bufferView" : 1,
            "componentType" : 5126,
            "count" : 1153,
            "type" : "VEC3"
        },
        {
            "bufferView" : 2,
            "componentType" : 5126,
            "count" : 1153,
            "type" : "VEC2"
        },
        {
            "bufferView" : 3,
            "componentType" : 5126,
            "count" : 1153,
            "type" : "VEC2"
        },
        {
            "bufferView" : 4,
            "componentType" : 5123,
            "count" : 6030,
            "type" : "SCALAR"
        }
    ],
    "bufferViews" : [
        {
            "buffer" : 0,
            "byteLength" : 13836,
            "byteOffset" : 0
        },
        {
            "buffer" : 0,
            "byteLength" : 13836,
            "byteOffset" : 13836
        },
        {
            "buffer" : 0,
            "byteLength" : 9224,
            "byteOffset" : 27672
        },
        {
            "buffer" : 0,
            "byteLength" : 9224,
            "byteOffset" : 36896
        },
        {
            "buffer" : 0,
            "byteLength" : 12060,
            "byteOffset" : 46120
        }
    ],
    "buffers" : [
        {
            "byteLength" : 58180,
            "uri" : "doll_arm.bin"
        }
    ]
}
