{
    "asset" : {
        "generator" : "Khronos glTF Blender I/O v1.2.75",
        "version" : "2.0"
    },
    "scene" : 0,
    "scenes" : [
        {
            "name" : "Scene",
            "nodes" : [
                0
            ]
        }
    ],
    "nodes" : [
        {
            "mesh" : 0,
            "name" : "Dollhouse",
            "rotation" : [
                0.7071068286895752,
                0,
                0,
                0.7071067094802856
            ],
            "scale" : [
                0.009999999776482582,
                0.009999999776482582,
                0.009999999776482582
            ]
        }
    ],
    "materials" : [
        {
            "doubleSided" : true,
            "emissiveFactor" : [
                0,
                0,
                0
            ],
            "name" : "doll_house_material",
            "normalTexture" : {
                "index" : 0,
                "texCoord" : 0
            },
            "pbrMetallicRoughness" : {
                "baseColorTexture" : {
                    "index" : 1,
                    "texCoord" : 0
                },
                "metallicFactor" : 1,
                "roughnessFactor" : 0.800000011920929
            }
        }
    ],
    "meshes" : [
        {
            "name" : "Mesh",
            "primitives" : [
                {
                    "attributes" : {
                        "POSITION" : 0,
                        "NORMAL" : 1,
                        "TEXCOORD_0" : 2,
                        "TEXCOORD_1" : 3
                    },
                    "indices" : 4,
                    "material" : 0
                }
            ]
        }
    ],
    "textures" : [
        {
            "source" : 0
        },
        {
            "source" : 1
        }
    ],
    "images" : [
        {
            "mimeType" : "image/png",
            "name" : "doll_house_normals",
            "uri" : "textures/doll_house_normals.png"
        },
        {
            "mimeType" : "image/png",
            "name" : "doll_house_diffuse",
            "uri" : "textures/doll_house_diffuse.png"
        }
    ],
    "accessors" : [
        {
            "bufferView" : 0,
            "componentType" : 5126,
            "count" : 6427,
            "max" : [
                304.3538818359375,
                298.99072265625,
                2.836273193359375
            ],
            "min" : [
                -304.3537902832031,
                -298.99072265625,
                -1054.16357421875
            ],
            "type" : "VEC3"
        },
        {
            "bufferView" : 1,
            "componentType" : 5126,
            "count" : 6427,
            "type" : "VEC3"
        },
        {
            "bufferView" : 2,
            "componentType" : 5126,
            "count" : 6427,
            "type" : "VEC2"
        },
        {
            "bufferView" : 3,
            "componentType" : 5126,
            "count" : 6427,
            "type" : "VEC2"
        },
        {
            "bufferView" : 4,
            "componentType" : 5123,
            "count" : 9537,
            "type" : "SCALAR"
        }
    ],
    "bufferViews" : [
        {
            "buffer" : 0,
            "byteLength" : 77124,
            "byteOffset" : 0
        },
        {
            "buffer" : 0,
            "byteLength" : 77124,
            "byteOffset" : 77124
        },
        {
            "buffer" : 0,
            "byteLength" : 51416,
            "byteOffset" : 154248
        },
        {
            "buffer" : 0,
            "byteLength" : 51416,
            "byteOffset" : 205664
        },
        {
            "buffer" : 0,
            "byteLength" : 19074,
            "byteOffset" : 257080
        }
    ],
    "buffers" : [
        {
            "byteLength" : 276156,
            "uri" : "doll_house.bin"
        }
    ]
}
